<?xml version='1.0' encoding='UTF-8'?>
<svg xmlns="http://www.w3.org/2000/svg" width="1024" height="500" viewBox="0 0 1024 500">
  <!-- Background -->
  <rect width="1024" height="500" fill="#d69999"/>
  <!-- Icon: large, on the left -->
  <path d="M19.77 7.23l.01-.01l-3.72-3.72L15 4.56l2.11 2.11c-.94.36-1.61 1.26-1.61 2.33a2.5 2.5 0 0 0 2.5 2.5c.36 0 .69-.08 1-.21v7.21c0 .55-.45 1-1 1s-1-.45-1-1V14c0-1.1-.9-2-2-2h-1V5c0-1.1-.9-2-2-2H6c-1.1 0-2 .9-2 2v16h10v-7.5h1.5v5a2.5 2.5 0 0 0 5 0V9c0-.69-.28-1.32-.73-1.77zM12 10H6V5h6v5zm6 0c-.55 0-1-.45-1-1s.45-1 1-1s1 .45 1 1s-.45 1-1 1z" fill="#712b5e" transform="translate(70, 140) scale(8)"/>
  <!-- App Name -->
  <text x="310" y="220" font-family="Google Sans, Helvetica Neue, sans-serif" font-size="64" font-weight="700" fill="#712b5e" text-anchor="start">
    Carburoid
  </text>
  <!-- Version -->
  <text x="660" y="220" id="version" font-family="Google Sans, Helvetica Neue, sans-serif" font-size="52" font-weight="500" fill="#f0e0dd" text-anchor="start">1.4.1</text>
  <!-- Motto -->
  <text x="310" y="290" id="motto" font-family="Google Sans, Helvetica Neue, sans-serif" font-size="36" fill="#712b5e" fill-opacity="0.7" text-anchor="start">
    Fill up cheaper, closer
  </text>
</svg>
